%TF.GenerationSoftware,KiCad,Pcbnew,(6.0.0-0)*%
%TF.CreationDate,2022-03-26T15:15:51+01:00*%
%TF.ProjectId,ARM20CTX,41524d32-3043-4545-982e-6b696361645f,rev?*%
%TF.SameCoordinates,Original*%
%TF.FileFunction,Legend,Bot*%
%TF.FilePolarity,Positive*%
%FSLAX46Y46*%
G04 Gerber Fmt 4.6, Leading zero omitted, Abs format (unit mm)*
G04 Created by KiCad (PCBNEW (6.0.0-0)) date 2022-03-26 15:15:51*
%MOMM*%
%LPD*%
G01*
G04 APERTURE LIST*
%ADD10C,0.150000*%
%ADD11C,0.200000*%
G04 APERTURE END LIST*
D10*
X139355580Y-76660952D02*
X140069866Y-76660952D01*
X140212723Y-76613333D01*
X140307961Y-76518095D01*
X140355580Y-76375238D01*
X140355580Y-76280000D01*
X140355580Y-77613333D02*
X140355580Y-77137142D01*
X139355580Y-77137142D01*
X140260342Y-78518095D02*
X140307961Y-78470476D01*
X140355580Y-78327619D01*
X140355580Y-78232380D01*
X140307961Y-78089523D01*
X140212723Y-77994285D01*
X140117485Y-77946666D01*
X139927009Y-77899047D01*
X139784152Y-77899047D01*
X139593676Y-77946666D01*
X139498438Y-77994285D01*
X139403200Y-78089523D01*
X139355580Y-78232380D01*
X139355580Y-78327619D01*
X139403200Y-78470476D01*
X139450819Y-78518095D01*
X139355580Y-79232380D02*
X140069866Y-79232380D01*
X140212723Y-79184761D01*
X140307961Y-79089523D01*
X140355580Y-78946666D01*
X140355580Y-78851428D01*
X140355580Y-80184761D02*
X140355580Y-79708571D01*
X139355580Y-79708571D01*
X140260342Y-81089523D02*
X140307961Y-81041904D01*
X140355580Y-80899047D01*
X140355580Y-80803809D01*
X140307961Y-80660952D01*
X140212723Y-80565714D01*
X140117485Y-80518095D01*
X139927009Y-80470476D01*
X139784152Y-80470476D01*
X139593676Y-80518095D01*
X139498438Y-80565714D01*
X139403200Y-80660952D01*
X139355580Y-80803809D01*
X139355580Y-80899047D01*
X139403200Y-81041904D01*
X139450819Y-81089523D01*
X139355580Y-81803809D02*
X140069866Y-81803809D01*
X140212723Y-81756190D01*
X140307961Y-81660952D01*
X140355580Y-81518095D01*
X140355580Y-81422857D01*
X140355580Y-82756190D02*
X140355580Y-82280000D01*
X139355580Y-82280000D01*
X140260342Y-83660952D02*
X140307961Y-83613333D01*
X140355580Y-83470476D01*
X140355580Y-83375238D01*
X140307961Y-83232380D01*
X140212723Y-83137142D01*
X140117485Y-83089523D01*
X139927009Y-83041904D01*
X139784152Y-83041904D01*
X139593676Y-83089523D01*
X139498438Y-83137142D01*
X139403200Y-83232380D01*
X139355580Y-83375238D01*
X139355580Y-83470476D01*
X139403200Y-83613333D01*
X139450819Y-83660952D01*
X139355580Y-84375238D02*
X140069866Y-84375238D01*
X140212723Y-84327619D01*
X140307961Y-84232380D01*
X140355580Y-84089523D01*
X140355580Y-83994285D01*
X140355580Y-85327619D02*
X140355580Y-84851428D01*
X139355580Y-84851428D01*
X140260342Y-86232380D02*
X140307961Y-86184761D01*
X140355580Y-86041904D01*
X140355580Y-85946666D01*
X140307961Y-85803809D01*
X140212723Y-85708571D01*
X140117485Y-85660952D01*
X139927009Y-85613333D01*
X139784152Y-85613333D01*
X139593676Y-85660952D01*
X139498438Y-85708571D01*
X139403200Y-85803809D01*
X139355580Y-85946666D01*
X139355580Y-86041904D01*
X139403200Y-86184761D01*
X139450819Y-86232380D01*
D11*
X133726528Y-87921314D02*
X135226528Y-87921314D01*
X133726528Y-87207028D02*
X135226528Y-87207028D01*
X135226528Y-86849885D01*
X135155100Y-86635600D01*
X135012242Y-86492742D01*
X134869385Y-86421314D01*
X134583671Y-86349885D01*
X134369385Y-86349885D01*
X134083671Y-86421314D01*
X133940814Y-86492742D01*
X133797957Y-86635600D01*
X133726528Y-86849885D01*
X133726528Y-87207028D01*
X133869385Y-84849885D02*
X133797957Y-84921314D01*
X133726528Y-85135600D01*
X133726528Y-85278457D01*
X133797957Y-85492742D01*
X133940814Y-85635600D01*
X134083671Y-85707028D01*
X134369385Y-85778457D01*
X134583671Y-85778457D01*
X134869385Y-85707028D01*
X135012242Y-85635600D01*
X135155100Y-85492742D01*
X135226528Y-85278457D01*
X135226528Y-85135600D01*
X135155100Y-84921314D01*
X135083671Y-84849885D01*
X134155100Y-83135600D02*
X134155100Y-82421314D01*
X133726528Y-83278457D02*
X135226528Y-82778457D01*
X133726528Y-82278457D01*
X133726528Y-81135600D02*
X135226528Y-81135600D01*
X133797957Y-81135600D02*
X133726528Y-81278457D01*
X133726528Y-81564171D01*
X133797957Y-81707028D01*
X133869385Y-81778457D01*
X134012242Y-81849885D01*
X134440814Y-81849885D01*
X134583671Y-81778457D01*
X134655100Y-81707028D01*
X134726528Y-81564171D01*
X134726528Y-81278457D01*
X134655100Y-81135600D01*
X133726528Y-79778457D02*
X134512242Y-79778457D01*
X134655100Y-79849885D01*
X134726528Y-79992742D01*
X134726528Y-80278457D01*
X134655100Y-80421314D01*
X133797957Y-79778457D02*
X133726528Y-79921314D01*
X133726528Y-80278457D01*
X133797957Y-80421314D01*
X133940814Y-80492742D01*
X134083671Y-80492742D01*
X134226528Y-80421314D01*
X134297957Y-80278457D01*
X134297957Y-79921314D01*
X134369385Y-79778457D01*
X134726528Y-79064171D02*
X133226528Y-79064171D01*
X134655100Y-79064171D02*
X134726528Y-78921314D01*
X134726528Y-78635600D01*
X134655100Y-78492742D01*
X134583671Y-78421314D01*
X134440814Y-78349885D01*
X134012242Y-78349885D01*
X133869385Y-78421314D01*
X133797957Y-78492742D01*
X133726528Y-78635600D01*
X133726528Y-78921314D01*
X133797957Y-79064171D01*
X134726528Y-77921314D02*
X134726528Y-77349885D01*
X135226528Y-77707028D02*
X133940814Y-77707028D01*
X133797957Y-77635600D01*
X133726528Y-77492742D01*
X133726528Y-77349885D01*
X133797957Y-76278457D02*
X133726528Y-76421314D01*
X133726528Y-76707028D01*
X133797957Y-76849885D01*
X133940814Y-76921314D01*
X134512242Y-76921314D01*
X134655100Y-76849885D01*
X134726528Y-76707028D01*
X134726528Y-76421314D01*
X134655100Y-76278457D01*
X134512242Y-76207028D01*
X134369385Y-76207028D01*
X134226528Y-76921314D01*
X133726528Y-75564171D02*
X134726528Y-75564171D01*
X134440814Y-75564171D02*
X134583671Y-75492742D01*
X134655100Y-75421314D01*
X134726528Y-75278457D01*
X134726528Y-75135600D01*
X131740100Y-92207028D02*
X131740100Y-91492742D01*
X131311528Y-92349885D02*
X132811528Y-91849885D01*
X131311528Y-91349885D01*
X131311528Y-89992742D02*
X132025814Y-90492742D01*
X131311528Y-90849885D02*
X132811528Y-90849885D01*
X132811528Y-90278457D01*
X132740100Y-90135600D01*
X132668671Y-90064171D01*
X132525814Y-89992742D01*
X132311528Y-89992742D01*
X132168671Y-90064171D01*
X132097242Y-90135600D01*
X132025814Y-90278457D01*
X132025814Y-90849885D01*
X131311528Y-89349885D02*
X132811528Y-89349885D01*
X131740100Y-88849885D01*
X132811528Y-88349885D01*
X131311528Y-88349885D01*
X132668671Y-87707028D02*
X132740100Y-87635600D01*
X132811528Y-87492742D01*
X132811528Y-87135600D01*
X132740100Y-86992742D01*
X132668671Y-86921314D01*
X132525814Y-86849885D01*
X132382957Y-86849885D01*
X132168671Y-86921314D01*
X131311528Y-87778457D01*
X131311528Y-86849885D01*
X132811528Y-85921314D02*
X132811528Y-85778457D01*
X132740100Y-85635600D01*
X132668671Y-85564171D01*
X132525814Y-85492742D01*
X132240100Y-85421314D01*
X131882957Y-85421314D01*
X131597242Y-85492742D01*
X131454385Y-85564171D01*
X131382957Y-85635600D01*
X131311528Y-85778457D01*
X131311528Y-85921314D01*
X131382957Y-86064171D01*
X131454385Y-86135600D01*
X131597242Y-86207028D01*
X131882957Y-86278457D01*
X132240100Y-86278457D01*
X132525814Y-86207028D01*
X132668671Y-86135600D01*
X132740100Y-86064171D01*
X132811528Y-85921314D01*
X131882957Y-83635600D02*
X131882957Y-82492742D01*
X132311528Y-81778457D02*
X131882957Y-80635600D01*
X131454385Y-81778457D01*
X132811528Y-78992742D02*
X132811528Y-78135599D01*
X131311528Y-78564171D02*
X132811528Y-78564171D01*
X131454385Y-76778457D02*
X131382957Y-76849885D01*
X131311528Y-77064171D01*
X131311528Y-77207028D01*
X131382957Y-77421314D01*
X131525814Y-77564171D01*
X131668671Y-77635599D01*
X131954385Y-77707028D01*
X132168671Y-77707028D01*
X132454385Y-77635599D01*
X132597242Y-77564171D01*
X132740100Y-77421314D01*
X132811528Y-77207028D01*
X132811528Y-77064171D01*
X132740100Y-76849885D01*
X132668671Y-76778457D01*
X132668671Y-76207028D02*
X132740100Y-76135599D01*
X132811528Y-75992742D01*
X132811528Y-75635599D01*
X132740100Y-75492742D01*
X132668671Y-75421314D01*
X132525814Y-75349885D01*
X132382957Y-75349885D01*
X132168671Y-75421314D01*
X131311528Y-76278457D01*
X131311528Y-75349885D01*
X132811528Y-74421314D02*
X132811528Y-74278457D01*
X132740100Y-74135599D01*
X132668671Y-74064171D01*
X132525814Y-73992742D01*
X132240100Y-73921314D01*
X131882957Y-73921314D01*
X131597242Y-73992742D01*
X131454385Y-74064171D01*
X131382957Y-74135599D01*
X131311528Y-74278457D01*
X131311528Y-74421314D01*
X131382957Y-74564171D01*
X131454385Y-74635599D01*
X131597242Y-74707028D01*
X131882957Y-74778457D01*
X132240100Y-74778457D01*
X132525814Y-74707028D01*
X132668671Y-74635599D01*
X132740100Y-74564171D01*
X132811528Y-74421314D01*
X132811528Y-73421314D02*
X132811528Y-72492742D01*
X132240100Y-72992742D01*
X132240100Y-72778457D01*
X132168671Y-72635600D01*
X132097242Y-72564171D01*
X131954385Y-72492742D01*
X131597242Y-72492742D01*
X131454385Y-72564171D01*
X131382957Y-72635600D01*
X131311528Y-72778457D01*
X131311528Y-73207028D01*
X131382957Y-73349885D01*
X131454385Y-73421314D01*
X132811528Y-71564171D02*
X132811528Y-71421314D01*
X132740100Y-71278457D01*
X132668671Y-71207028D01*
X132525814Y-71135600D01*
X132240100Y-71064171D01*
X131882957Y-71064171D01*
X131597242Y-71135600D01*
X131454385Y-71207028D01*
X131382957Y-71278457D01*
X131311528Y-71421314D01*
X131311528Y-71564171D01*
X131382957Y-71707028D01*
X131454385Y-71778457D01*
X131597242Y-71849885D01*
X131882957Y-71921314D01*
X132240100Y-71921314D01*
X132525814Y-71849885D01*
X132668671Y-71778457D01*
X132740100Y-71707028D01*
X132811528Y-71564171D01*
M02*
