%TF.GenerationSoftware,KiCad,Pcbnew,(6.0.0-0)*%
%TF.CreationDate,2022-03-26T15:15:51+01:00*%
%TF.ProjectId,ARM20CTX,41524d32-3043-4545-982e-6b696361645f,rev?*%
%TF.SameCoordinates,Original*%
%TF.FileFunction,Copper,L1,Top*%
%TF.FilePolarity,Positive*%
%FSLAX46Y46*%
G04 Gerber Fmt 4.6, Leading zero omitted, Abs format (unit mm)*
G04 Created by KiCad (PCBNEW (6.0.0-0)) date 2022-03-26 15:15:51*
%MOMM*%
%LPD*%
G01*
G04 APERTURE LIST*
G04 Aperture macros list*
%AMRoundRect*
0 Rectangle with rounded corners*
0 $1 Rounding radius*
0 $2 $3 $4 $5 $6 $7 $8 $9 X,Y pos of 4 corners*
0 Add a 4 corners polygon primitive as box body*
4,1,4,$2,$3,$4,$5,$6,$7,$8,$9,$2,$3,0*
0 Add four circle primitives for the rounded corners*
1,1,$1+$1,$2,$3*
1,1,$1+$1,$4,$5*
1,1,$1+$1,$6,$7*
1,1,$1+$1,$8,$9*
0 Add four rect primitives between the rounded corners*
20,1,$1+$1,$2,$3,$4,$5,0*
20,1,$1+$1,$4,$5,$6,$7,0*
20,1,$1+$1,$6,$7,$8,$9,0*
20,1,$1+$1,$8,$9,$2,$3,0*%
G04 Aperture macros list end*
%TA.AperFunction,ComponentPad*%
%ADD10C,1.700000*%
%TD*%
%TA.AperFunction,ComponentPad*%
%ADD11RoundRect,0.250000X-0.600000X-0.600000X0.600000X-0.600000X0.600000X0.600000X-0.600000X0.600000X0*%
%TD*%
%TA.AperFunction,ComponentPad*%
%ADD12RoundRect,0.250000X0.600000X0.600000X-0.600000X0.600000X-0.600000X-0.600000X0.600000X-0.600000X0*%
%TD*%
%TA.AperFunction,Conductor*%
%ADD13C,0.300000*%
%TD*%
G04 APERTURE END LIST*
D10*
%TO.P,J1,20,Pin_20*%
%TO.N,GND*%
X126746001Y-92913200D03*
%TO.P,J1,18,Pin_18*%
X126746001Y-90373200D03*
%TO.P,J1,16,Pin_16*%
X126746001Y-87833200D03*
%TO.P,J1,14,Pin_14*%
X126746001Y-85293200D03*
%TO.P,J1,12,Pin_12*%
X126746001Y-82753200D03*
%TO.P,J1,10,Pin_10*%
X126746001Y-80213200D03*
%TO.P,J1,8,Pin_8*%
X126746001Y-77673200D03*
%TO.P,J1,6,Pin_6*%
X126746001Y-75133200D03*
%TO.P,J1,4,Pin_4*%
X126746001Y-72593200D03*
%TO.P,J1,2,Pin_2*%
%TO.N,unconnected-(J1-Pad2)*%
X126746001Y-70053200D03*
%TO.P,J1,19,Pin_19*%
%TO.N,unconnected-(J1-Pad19)*%
X124206001Y-92913200D03*
%TO.P,J1,17,Pin_17*%
%TO.N,unconnected-(J1-Pad17)*%
X124206001Y-90373200D03*
%TO.P,J1,15,Pin_15*%
%TO.N,nRESET*%
X124206001Y-87833200D03*
%TO.P,J1,13,Pin_13*%
%TO.N,SWO*%
X124206001Y-85293200D03*
%TO.P,J1,11,Pin_11*%
%TO.N,RTCK*%
X124206001Y-82753200D03*
%TO.P,J1,9,Pin_9*%
%TO.N,SWCLK*%
X124206001Y-80213200D03*
%TO.P,J1,7,Pin_7*%
%TO.N,SWDIO*%
X124206001Y-77673200D03*
%TO.P,J1,5,Pin_5*%
%TO.N,TDI*%
X124206001Y-75133200D03*
%TO.P,J1,3,Pin_3*%
%TO.N,nTRST*%
X124206001Y-72593200D03*
D11*
%TO.P,J1,1,Pin_1*%
%TO.N,VCC*%
X124206001Y-70053200D03*
%TD*%
D12*
%TO.P,J2,1,Pin_1*%
%TO.N,VCC*%
X144696400Y-83820000D03*
D10*
%TO.P,J2,2,Pin_2*%
%TO.N,SWDIO*%
X142156400Y-83820000D03*
%TO.P,J2,3,Pin_3*%
%TO.N,nRESET*%
X144696400Y-81280000D03*
%TO.P,J2,4,Pin_4*%
%TO.N,SWCLK*%
X142156400Y-81280000D03*
%TO.P,J2,5,Pin_5*%
%TO.N,GND*%
X144696400Y-78740000D03*
%TO.P,J2,6,Pin_6*%
%TO.N,SWO*%
X142156400Y-78740000D03*
%TD*%
D13*
%TO.N,VCC*%
X144696400Y-83820000D02*
X143459200Y-82582800D01*
X143459200Y-82582800D02*
X143459200Y-80619600D01*
X143459200Y-80619600D02*
X142849600Y-80010000D01*
X132181600Y-71323200D02*
X125476001Y-71323200D01*
X125476001Y-71323200D02*
X124206001Y-70053200D01*
X142849600Y-80010000D02*
X140868400Y-80010000D01*
X140868400Y-80010000D02*
X132181600Y-71323200D01*
%TO.N,SWO*%
X142156400Y-78740000D02*
X144036000Y-76860400D01*
X148183600Y-79248000D02*
X148183600Y-85953600D01*
X125476001Y-86563200D02*
X124206001Y-85293200D01*
X145796000Y-76860400D02*
X148183600Y-79248000D01*
X127355600Y-86563200D02*
X125476001Y-86563200D01*
X148183600Y-85953600D02*
X146151600Y-87985600D01*
X144036000Y-76860400D02*
X145796000Y-76860400D01*
X146151600Y-87985600D02*
X128778000Y-87985600D01*
X128778000Y-87985600D02*
X127355600Y-86563200D01*
%TO.N,nRESET*%
X144696400Y-81280000D02*
X145440400Y-81280000D01*
X122224800Y-84683600D02*
X122224800Y-85851999D01*
X145440400Y-81280000D02*
X146862800Y-82702400D01*
X146050000Y-85801200D02*
X129895600Y-85801200D01*
X129895600Y-85801200D02*
X128117600Y-84023200D01*
X122885200Y-84023200D02*
X122224800Y-84683600D01*
X146862800Y-82702400D02*
X146862800Y-84988400D01*
X146862800Y-84988400D02*
X146050000Y-85801200D01*
X128117600Y-84023200D02*
X122885200Y-84023200D01*
X122224800Y-85851999D02*
X124206001Y-87833200D01*
%TO.N,SWCLK*%
X142156400Y-81280000D02*
X131064000Y-81280000D01*
X131064000Y-81280000D02*
X128727200Y-78943200D01*
X128727200Y-78943200D02*
X125476001Y-78943200D01*
X125476001Y-78943200D02*
X124206001Y-80213200D01*
%TO.N,SWDIO*%
X128219200Y-81483200D02*
X123088400Y-81483200D01*
X128219200Y-81483200D02*
X130556000Y-83820000D01*
X130556000Y-83820000D02*
X142156400Y-83820000D01*
X122428000Y-79451201D02*
X124206001Y-77673200D01*
X123088400Y-81483200D02*
X122428000Y-80822800D01*
X122428000Y-80822800D02*
X122428000Y-79451201D01*
%TD*%
M02*
