%TF.GenerationSoftware,KiCad,Pcbnew,(6.0.0-0)*%
%TF.CreationDate,2022-03-26T15:15:51+01:00*%
%TF.ProjectId,ARM20CTX,41524d32-3043-4545-982e-6b696361645f,rev?*%
%TF.SameCoordinates,Original*%
%TF.FileFunction,Copper,L2,Bot*%
%TF.FilePolarity,Positive*%
%FSLAX46Y46*%
G04 Gerber Fmt 4.6, Leading zero omitted, Abs format (unit mm)*
G04 Created by KiCad (PCBNEW (6.0.0-0)) date 2022-03-26 15:15:51*
%MOMM*%
%LPD*%
G01*
G04 APERTURE LIST*
G04 Aperture macros list*
%AMRoundRect*
0 Rectangle with rounded corners*
0 $1 Rounding radius*
0 $2 $3 $4 $5 $6 $7 $8 $9 X,Y pos of 4 corners*
0 Add a 4 corners polygon primitive as box body*
4,1,4,$2,$3,$4,$5,$6,$7,$8,$9,$2,$3,0*
0 Add four circle primitives for the rounded corners*
1,1,$1+$1,$2,$3*
1,1,$1+$1,$4,$5*
1,1,$1+$1,$6,$7*
1,1,$1+$1,$8,$9*
0 Add four rect primitives between the rounded corners*
20,1,$1+$1,$2,$3,$4,$5,0*
20,1,$1+$1,$4,$5,$6,$7,0*
20,1,$1+$1,$6,$7,$8,$9,0*
20,1,$1+$1,$8,$9,$2,$3,0*%
G04 Aperture macros list end*
%TA.AperFunction,ComponentPad*%
%ADD10C,1.700000*%
%TD*%
%TA.AperFunction,ComponentPad*%
%ADD11RoundRect,0.250000X-0.600000X-0.600000X0.600000X-0.600000X0.600000X0.600000X-0.600000X0.600000X0*%
%TD*%
%TA.AperFunction,ComponentPad*%
%ADD12RoundRect,0.250000X0.600000X0.600000X-0.600000X0.600000X-0.600000X-0.600000X0.600000X-0.600000X0*%
%TD*%
G04 APERTURE END LIST*
D10*
%TO.P,J1,20,Pin_20*%
%TO.N,GND*%
X126746001Y-92913200D03*
%TO.P,J1,18,Pin_18*%
X126746001Y-90373200D03*
%TO.P,J1,16,Pin_16*%
X126746001Y-87833200D03*
%TO.P,J1,14,Pin_14*%
X126746001Y-85293200D03*
%TO.P,J1,12,Pin_12*%
X126746001Y-82753200D03*
%TO.P,J1,10,Pin_10*%
X126746001Y-80213200D03*
%TO.P,J1,8,Pin_8*%
X126746001Y-77673200D03*
%TO.P,J1,6,Pin_6*%
X126746001Y-75133200D03*
%TO.P,J1,4,Pin_4*%
X126746001Y-72593200D03*
%TO.P,J1,2,Pin_2*%
%TO.N,unconnected-(J1-Pad2)*%
X126746001Y-70053200D03*
%TO.P,J1,19,Pin_19*%
%TO.N,unconnected-(J1-Pad19)*%
X124206001Y-92913200D03*
%TO.P,J1,17,Pin_17*%
%TO.N,unconnected-(J1-Pad17)*%
X124206001Y-90373200D03*
%TO.P,J1,15,Pin_15*%
%TO.N,nRESET*%
X124206001Y-87833200D03*
%TO.P,J1,13,Pin_13*%
%TO.N,SWO*%
X124206001Y-85293200D03*
%TO.P,J1,11,Pin_11*%
%TO.N,RTCK*%
X124206001Y-82753200D03*
%TO.P,J1,9,Pin_9*%
%TO.N,SWCLK*%
X124206001Y-80213200D03*
%TO.P,J1,7,Pin_7*%
%TO.N,SWDIO*%
X124206001Y-77673200D03*
%TO.P,J1,5,Pin_5*%
%TO.N,TDI*%
X124206001Y-75133200D03*
%TO.P,J1,3,Pin_3*%
%TO.N,nTRST*%
X124206001Y-72593200D03*
D11*
%TO.P,J1,1,Pin_1*%
%TO.N,VCC*%
X124206001Y-70053200D03*
%TD*%
D12*
%TO.P,J2,1,Pin_1*%
%TO.N,VCC*%
X144696400Y-83820000D03*
D10*
%TO.P,J2,2,Pin_2*%
%TO.N,SWDIO*%
X142156400Y-83820000D03*
%TO.P,J2,3,Pin_3*%
%TO.N,nRESET*%
X144696400Y-81280000D03*
%TO.P,J2,4,Pin_4*%
%TO.N,SWCLK*%
X142156400Y-81280000D03*
%TO.P,J2,5,Pin_5*%
%TO.N,GND*%
X144696400Y-78740000D03*
%TO.P,J2,6,Pin_6*%
%TO.N,SWO*%
X142156400Y-78740000D03*
%TD*%
%TA.AperFunction,Conductor*%
%TO.N,GND*%
G36*
X130244867Y-64941658D02*
G01*
X130326946Y-64996502D01*
X130358750Y-65035351D01*
X135430914Y-72666443D01*
X135765774Y-73170242D01*
X135769042Y-73175288D01*
X135803960Y-73230631D01*
X135817475Y-73242567D01*
X135824662Y-73248915D01*
X135845901Y-73270038D01*
X135852292Y-73277196D01*
X135852295Y-73277199D01*
X135864295Y-73290638D01*
X135879583Y-73300169D01*
X135888775Y-73307906D01*
X135889491Y-73308439D01*
X135899521Y-73315027D01*
X135913028Y-73326956D01*
X135938037Y-73338698D01*
X135964342Y-73353008D01*
X135967302Y-73354853D01*
X135987779Y-73367618D01*
X136005141Y-73372478D01*
X136016147Y-73377330D01*
X136016936Y-73377624D01*
X136028434Y-73381139D01*
X136044748Y-73388799D01*
X136072037Y-73393048D01*
X136101313Y-73399402D01*
X136110547Y-73401987D01*
X136110552Y-73401988D01*
X136127907Y-73406846D01*
X136199792Y-73406017D01*
X136202709Y-73406000D01*
X152909000Y-73406000D01*
X153005819Y-73425258D01*
X153087898Y-73480102D01*
X153142742Y-73562181D01*
X153162000Y-73659000D01*
X153162000Y-88951800D01*
X153142742Y-89048619D01*
X153087898Y-89130698D01*
X153005819Y-89185542D01*
X152909000Y-89204800D01*
X136156966Y-89204800D01*
X136156083Y-89204798D01*
X136073015Y-89204508D01*
X136055692Y-89209508D01*
X136053921Y-89210019D01*
X136019623Y-89217388D01*
X136018370Y-89217568D01*
X135999955Y-89220205D01*
X135983544Y-89227666D01*
X135982731Y-89227904D01*
X135951303Y-89239513D01*
X135950526Y-89239863D01*
X135933208Y-89244862D01*
X135916419Y-89255516D01*
X135885581Y-89272207D01*
X135883899Y-89272972D01*
X135867490Y-89280433D01*
X135853837Y-89292197D01*
X135853101Y-89292668D01*
X135826210Y-89312621D01*
X135825559Y-89313178D01*
X135810345Y-89322833D01*
X135797222Y-89337770D01*
X135772310Y-89362445D01*
X135757253Y-89375419D01*
X135737849Y-89405356D01*
X135735728Y-89403981D01*
X135735602Y-89404126D01*
X135735266Y-89403833D01*
X135734483Y-89405514D01*
X135736554Y-89406831D01*
X135719606Y-89433485D01*
X135718502Y-89435205D01*
X135678107Y-89497527D01*
X135677443Y-89499749D01*
X135677263Y-89500078D01*
X130351564Y-97875950D01*
X130283364Y-97947318D01*
X130193043Y-97987155D01*
X130138067Y-97993200D01*
X121106200Y-97993200D01*
X121009381Y-97973942D01*
X120927302Y-97919098D01*
X120872458Y-97837019D01*
X120853200Y-97740200D01*
X120853200Y-92879895D01*
X122843252Y-92879895D01*
X122856111Y-93102915D01*
X122905223Y-93320839D01*
X122909130Y-93330460D01*
X122985361Y-93518198D01*
X122985364Y-93518204D01*
X122989267Y-93527816D01*
X122994691Y-93536667D01*
X123100561Y-93709433D01*
X123100565Y-93709439D01*
X123105988Y-93718288D01*
X123252251Y-93887138D01*
X123424127Y-94029832D01*
X123433093Y-94035071D01*
X123433094Y-94035072D01*
X123486131Y-94066064D01*
X123617001Y-94142538D01*
X123825693Y-94222230D01*
X123928232Y-94243092D01*
X124034428Y-94264698D01*
X124034429Y-94264698D01*
X124044598Y-94266767D01*
X124167420Y-94271271D01*
X124257467Y-94274573D01*
X124257471Y-94274573D01*
X124267838Y-94274953D01*
X124386222Y-94259788D01*
X124479114Y-94247888D01*
X124479116Y-94247888D01*
X124489417Y-94246568D01*
X124563640Y-94224300D01*
X124693443Y-94185357D01*
X124693446Y-94185356D01*
X124703385Y-94182374D01*
X124903995Y-94084096D01*
X124912444Y-94078069D01*
X124912448Y-94078067D01*
X124967940Y-94038485D01*
X125985772Y-94038485D01*
X125988371Y-94042374D01*
X125993958Y-94046685D01*
X126148251Y-94136846D01*
X126166919Y-94145790D01*
X126356136Y-94218045D01*
X126376004Y-94223817D01*
X126574486Y-94264199D01*
X126595030Y-94266648D01*
X126797444Y-94274071D01*
X126818111Y-94273132D01*
X127019008Y-94247397D01*
X127039263Y-94243092D01*
X127233254Y-94184891D01*
X127252526Y-94177339D01*
X127434420Y-94088230D01*
X127452184Y-94077641D01*
X127489711Y-94050873D01*
X127504228Y-94035440D01*
X127500292Y-94026701D01*
X126763620Y-93290029D01*
X126746001Y-93278256D01*
X126728382Y-93290029D01*
X125997545Y-94020866D01*
X125985772Y-94038485D01*
X124967940Y-94038485D01*
X125077411Y-93960400D01*
X125085861Y-93954373D01*
X125093215Y-93947045D01*
X125236746Y-93804015D01*
X125236750Y-93804011D01*
X125244097Y-93796689D01*
X125250151Y-93788264D01*
X125250156Y-93788258D01*
X125283222Y-93742241D01*
X125355359Y-93674853D01*
X125447792Y-93640201D01*
X125546451Y-93643559D01*
X125594603Y-93660116D01*
X125622133Y-93672808D01*
X125628955Y-93670291D01*
X125632476Y-93667515D01*
X126369172Y-92930819D01*
X126380945Y-92913200D01*
X127111057Y-92913200D01*
X127122830Y-92930819D01*
X127851668Y-93659657D01*
X127869287Y-93671430D01*
X127877368Y-93666031D01*
X127907964Y-93623451D01*
X127918623Y-93605711D01*
X128008364Y-93424135D01*
X128015983Y-93404892D01*
X128074864Y-93211092D01*
X128079235Y-93190875D01*
X128106149Y-92986443D01*
X128107193Y-92973024D01*
X128108490Y-92919939D01*
X128108103Y-92906484D01*
X128091209Y-92700999D01*
X128087827Y-92680565D01*
X128038486Y-92484136D01*
X128031814Y-92464538D01*
X127951055Y-92278803D01*
X127941270Y-92260555D01*
X127882759Y-92170109D01*
X127867999Y-92154904D01*
X127860913Y-92157716D01*
X127859773Y-92158638D01*
X127122830Y-92895581D01*
X127111057Y-92913200D01*
X126380945Y-92913200D01*
X126369172Y-92895581D01*
X125640657Y-92167066D01*
X125622012Y-92154608D01*
X125614213Y-92156159D01*
X125542822Y-92185731D01*
X125444106Y-92185731D01*
X125352904Y-92147954D01*
X125293015Y-92091960D01*
X125291651Y-92090189D01*
X125286015Y-92081477D01*
X125135671Y-91916251D01*
X125127532Y-91909823D01*
X125127519Y-91909811D01*
X125042567Y-91842720D01*
X124978522Y-91767600D01*
X124948100Y-91673689D01*
X124955931Y-91575285D01*
X124995148Y-91498485D01*
X125985772Y-91498485D01*
X125988819Y-91503045D01*
X126026596Y-91594246D01*
X126026596Y-91692962D01*
X125988819Y-91784163D01*
X125987511Y-91785850D01*
X125986443Y-91788889D01*
X125991565Y-91799554D01*
X126728382Y-92536371D01*
X126746001Y-92548144D01*
X126763620Y-92536371D01*
X127494583Y-91805408D01*
X127506356Y-91787790D01*
X127503063Y-91782862D01*
X127465286Y-91691660D01*
X127465286Y-91592944D01*
X127499678Y-91509915D01*
X127504736Y-91496565D01*
X127500292Y-91486701D01*
X126763620Y-90750029D01*
X126746001Y-90738256D01*
X126728382Y-90750029D01*
X125997545Y-91480866D01*
X125985772Y-91498485D01*
X124995148Y-91498485D01*
X125000825Y-91487368D01*
X125052455Y-91438201D01*
X125077411Y-91420400D01*
X125085861Y-91414373D01*
X125093215Y-91407045D01*
X125236746Y-91264015D01*
X125236750Y-91264011D01*
X125244097Y-91256689D01*
X125250151Y-91248264D01*
X125250156Y-91248258D01*
X125283222Y-91202241D01*
X125355359Y-91134853D01*
X125447792Y-91100201D01*
X125546451Y-91103559D01*
X125594603Y-91120116D01*
X125622133Y-91132808D01*
X125628955Y-91130291D01*
X125632476Y-91127515D01*
X126369172Y-90390819D01*
X126380945Y-90373200D01*
X127111057Y-90373200D01*
X127122830Y-90390819D01*
X127851668Y-91119657D01*
X127869287Y-91131430D01*
X127877368Y-91126031D01*
X127907964Y-91083451D01*
X127918623Y-91065711D01*
X128008364Y-90884135D01*
X128015983Y-90864892D01*
X128074864Y-90671092D01*
X128079235Y-90650875D01*
X128106149Y-90446443D01*
X128107193Y-90433024D01*
X128108490Y-90379939D01*
X128108103Y-90366484D01*
X128091209Y-90160999D01*
X128087827Y-90140565D01*
X128038486Y-89944136D01*
X128031814Y-89924538D01*
X127951055Y-89738803D01*
X127941270Y-89720555D01*
X127882759Y-89630109D01*
X127867999Y-89614904D01*
X127860913Y-89617716D01*
X127859773Y-89618638D01*
X127122830Y-90355581D01*
X127111057Y-90373200D01*
X126380945Y-90373200D01*
X126369172Y-90355581D01*
X125640657Y-89627066D01*
X125622012Y-89614608D01*
X125614213Y-89616159D01*
X125542822Y-89645731D01*
X125444106Y-89645731D01*
X125352904Y-89607954D01*
X125293015Y-89551960D01*
X125291651Y-89550189D01*
X125286015Y-89541477D01*
X125163496Y-89406830D01*
X125142657Y-89383928D01*
X125142654Y-89383925D01*
X125135671Y-89376251D01*
X125127532Y-89369823D01*
X125127519Y-89369811D01*
X125042567Y-89302720D01*
X124978522Y-89227600D01*
X124948100Y-89133689D01*
X124955931Y-89035285D01*
X124995148Y-88958485D01*
X125985772Y-88958485D01*
X125988819Y-88963045D01*
X126026596Y-89054246D01*
X126026596Y-89152962D01*
X125988819Y-89244163D01*
X125987511Y-89245850D01*
X125986443Y-89248889D01*
X125991565Y-89259554D01*
X126728382Y-89996371D01*
X126746001Y-90008144D01*
X126763620Y-89996371D01*
X127494583Y-89265408D01*
X127506356Y-89247790D01*
X127503063Y-89242862D01*
X127465286Y-89151660D01*
X127465286Y-89052944D01*
X127499678Y-88969915D01*
X127504736Y-88956565D01*
X127500292Y-88946701D01*
X126763620Y-88210029D01*
X126746001Y-88198256D01*
X126728382Y-88210029D01*
X125997545Y-88940866D01*
X125985772Y-88958485D01*
X124995148Y-88958485D01*
X125000825Y-88947368D01*
X125052455Y-88898201D01*
X125077411Y-88880400D01*
X125085861Y-88874373D01*
X125093215Y-88867045D01*
X125236746Y-88724015D01*
X125236750Y-88724011D01*
X125244097Y-88716689D01*
X125250151Y-88708264D01*
X125250156Y-88708258D01*
X125283222Y-88662241D01*
X125355359Y-88594853D01*
X125447792Y-88560201D01*
X125546451Y-88563559D01*
X125594603Y-88580116D01*
X125622133Y-88592808D01*
X125628955Y-88590291D01*
X125632476Y-88587515D01*
X126369172Y-87850819D01*
X126380945Y-87833200D01*
X127111057Y-87833200D01*
X127122830Y-87850819D01*
X127851668Y-88579657D01*
X127869287Y-88591430D01*
X127877368Y-88586031D01*
X127907964Y-88543451D01*
X127918623Y-88525711D01*
X128008364Y-88344135D01*
X128015983Y-88324892D01*
X128074864Y-88131092D01*
X128079235Y-88110875D01*
X128106149Y-87906443D01*
X128107193Y-87893024D01*
X128108490Y-87839939D01*
X128108103Y-87826484D01*
X128091209Y-87620999D01*
X128087827Y-87600565D01*
X128038486Y-87404136D01*
X128031814Y-87384538D01*
X127951055Y-87198803D01*
X127941270Y-87180555D01*
X127882759Y-87090109D01*
X127867999Y-87074904D01*
X127860913Y-87077716D01*
X127859773Y-87078638D01*
X127122830Y-87815581D01*
X127111057Y-87833200D01*
X126380945Y-87833200D01*
X126369172Y-87815581D01*
X125640657Y-87087066D01*
X125622012Y-87074608D01*
X125614213Y-87076159D01*
X125542822Y-87105731D01*
X125444106Y-87105731D01*
X125352904Y-87067954D01*
X125293015Y-87011960D01*
X125291651Y-87010189D01*
X125286015Y-87001477D01*
X125135671Y-86836251D01*
X125127532Y-86829823D01*
X125127519Y-86829811D01*
X125042567Y-86762720D01*
X124978522Y-86687600D01*
X124948100Y-86593689D01*
X124955931Y-86495285D01*
X124995148Y-86418485D01*
X125985772Y-86418485D01*
X125988819Y-86423045D01*
X126026596Y-86514246D01*
X126026596Y-86612962D01*
X125988819Y-86704163D01*
X125987511Y-86705850D01*
X125986443Y-86708889D01*
X125991565Y-86719554D01*
X126728382Y-87456371D01*
X126746001Y-87468144D01*
X126763620Y-87456371D01*
X127494583Y-86725408D01*
X127506356Y-86707790D01*
X127503063Y-86702862D01*
X127465286Y-86611660D01*
X127465286Y-86512944D01*
X127499678Y-86429915D01*
X127504736Y-86416565D01*
X127500292Y-86406701D01*
X126763620Y-85670029D01*
X126746001Y-85658256D01*
X126728382Y-85670029D01*
X125997545Y-86400866D01*
X125985772Y-86418485D01*
X124995148Y-86418485D01*
X125000825Y-86407368D01*
X125052455Y-86358201D01*
X125077411Y-86340400D01*
X125085861Y-86334373D01*
X125093215Y-86327045D01*
X125236746Y-86184015D01*
X125236750Y-86184011D01*
X125244097Y-86176689D01*
X125250151Y-86168264D01*
X125250156Y-86168258D01*
X125283222Y-86122241D01*
X125355359Y-86054853D01*
X125447792Y-86020201D01*
X125546451Y-86023559D01*
X125594603Y-86040116D01*
X125622133Y-86052808D01*
X125628955Y-86050291D01*
X125632476Y-86047515D01*
X126369172Y-85310819D01*
X126380945Y-85293200D01*
X127111057Y-85293200D01*
X127122830Y-85310819D01*
X127851668Y-86039657D01*
X127869287Y-86051430D01*
X127877368Y-86046031D01*
X127907964Y-86003451D01*
X127918623Y-85985711D01*
X128008364Y-85804135D01*
X128015983Y-85784892D01*
X128074864Y-85591092D01*
X128079235Y-85570875D01*
X128106149Y-85366443D01*
X128107193Y-85353024D01*
X128108490Y-85299939D01*
X128108103Y-85286484D01*
X128091209Y-85080999D01*
X128087827Y-85060565D01*
X128038486Y-84864136D01*
X128031814Y-84844538D01*
X127951055Y-84658803D01*
X127941270Y-84640555D01*
X127882759Y-84550109D01*
X127867999Y-84534904D01*
X127860913Y-84537716D01*
X127859773Y-84538638D01*
X127122830Y-85275581D01*
X127111057Y-85293200D01*
X126380945Y-85293200D01*
X126369172Y-85275581D01*
X125640657Y-84547066D01*
X125622012Y-84534608D01*
X125614213Y-84536159D01*
X125542822Y-84565731D01*
X125444106Y-84565731D01*
X125352904Y-84527954D01*
X125293015Y-84471960D01*
X125291651Y-84470189D01*
X125286015Y-84461477D01*
X125135671Y-84296251D01*
X125127532Y-84289823D01*
X125127519Y-84289811D01*
X125042567Y-84222720D01*
X124978522Y-84147600D01*
X124948100Y-84053689D01*
X124955931Y-83955285D01*
X124995148Y-83878485D01*
X125985772Y-83878485D01*
X125988819Y-83883045D01*
X126026596Y-83974246D01*
X126026596Y-84072962D01*
X125988819Y-84164163D01*
X125987511Y-84165850D01*
X125986443Y-84168889D01*
X125991565Y-84179554D01*
X126728382Y-84916371D01*
X126746001Y-84928144D01*
X126763620Y-84916371D01*
X127494583Y-84185408D01*
X127506356Y-84167790D01*
X127503063Y-84162862D01*
X127465286Y-84071660D01*
X127465286Y-83972944D01*
X127499678Y-83889915D01*
X127504736Y-83876565D01*
X127500292Y-83866701D01*
X127420286Y-83786695D01*
X140793651Y-83786695D01*
X140794249Y-83797067D01*
X140794249Y-83797068D01*
X140803372Y-83955285D01*
X140806510Y-84009715D01*
X140855622Y-84227639D01*
X140874380Y-84273835D01*
X140935760Y-84424998D01*
X140935763Y-84425004D01*
X140939666Y-84434616D01*
X140945090Y-84443467D01*
X141050960Y-84616233D01*
X141050964Y-84616239D01*
X141056387Y-84625088D01*
X141202650Y-84793938D01*
X141210642Y-84800573D01*
X141210643Y-84800574D01*
X141227265Y-84814374D01*
X141374526Y-84936632D01*
X141567400Y-85049338D01*
X141577096Y-85053041D01*
X141577097Y-85053041D01*
X141610023Y-85065614D01*
X141776092Y-85129030D01*
X141881050Y-85150384D01*
X141984827Y-85171498D01*
X141984828Y-85171498D01*
X141994997Y-85173567D01*
X142117819Y-85178071D01*
X142207866Y-85181373D01*
X142207870Y-85181373D01*
X142218237Y-85181753D01*
X142336621Y-85166588D01*
X142429513Y-85154688D01*
X142429515Y-85154688D01*
X142439816Y-85153368D01*
X142533284Y-85125326D01*
X142643842Y-85092157D01*
X142643845Y-85092156D01*
X142653784Y-85089174D01*
X142854394Y-84990896D01*
X142862843Y-84984869D01*
X142862847Y-84984867D01*
X142961299Y-84914642D01*
X143036260Y-84861173D01*
X143083224Y-84814372D01*
X143165397Y-84759674D01*
X143262250Y-84740585D01*
X143359035Y-84760013D01*
X143441018Y-84815000D01*
X143476945Y-84860450D01*
X143479226Y-84864136D01*
X143497922Y-84894348D01*
X143623097Y-85019305D01*
X143773662Y-85112115D01*
X143889040Y-85150384D01*
X143927514Y-85163145D01*
X143941539Y-85167797D01*
X144046000Y-85178500D01*
X145346800Y-85178500D01*
X145353306Y-85177825D01*
X145438796Y-85168955D01*
X145438798Y-85168954D01*
X145452566Y-85167526D01*
X145561748Y-85131100D01*
X145606406Y-85116201D01*
X145606408Y-85116200D01*
X145620346Y-85111550D01*
X145695547Y-85065014D01*
X145758252Y-85026211D01*
X145758253Y-85026210D01*
X145770748Y-85018478D01*
X145804301Y-84984867D01*
X145885320Y-84903706D01*
X145895705Y-84893303D01*
X145961794Y-84786088D01*
X145980802Y-84755251D01*
X145980802Y-84755250D01*
X145988515Y-84742738D01*
X146044197Y-84574861D01*
X146054900Y-84470400D01*
X146054900Y-83169600D01*
X146043926Y-83063834D01*
X146012860Y-82970719D01*
X145992601Y-82909994D01*
X145992600Y-82909992D01*
X145987950Y-82896054D01*
X145894878Y-82745652D01*
X145769703Y-82620695D01*
X145757191Y-82612982D01*
X145757184Y-82612977D01*
X145737436Y-82600804D01*
X145665123Y-82533606D01*
X145624031Y-82443849D01*
X145620415Y-82345200D01*
X145654826Y-82252676D01*
X145691611Y-82206224D01*
X145727145Y-82170814D01*
X145734496Y-82163489D01*
X145773517Y-82109186D01*
X145831481Y-82028519D01*
X145864853Y-81982077D01*
X145898597Y-81913802D01*
X145959227Y-81791125D01*
X145959228Y-81791123D01*
X145963830Y-81781811D01*
X145993936Y-81682720D01*
X146025752Y-81578003D01*
X146025752Y-81578001D01*
X146028770Y-81568069D01*
X146033564Y-81531660D01*
X146045297Y-81442538D01*
X146057929Y-81346590D01*
X146058339Y-81329832D01*
X146059392Y-81286730D01*
X146059392Y-81286722D01*
X146059556Y-81280000D01*
X146041252Y-81057361D01*
X146033016Y-81024570D01*
X146019668Y-80971430D01*
X145986831Y-80840702D01*
X145965397Y-80791406D01*
X145901894Y-80645361D01*
X145901893Y-80645360D01*
X145897754Y-80635840D01*
X145888050Y-80620839D01*
X145782054Y-80456995D01*
X145782054Y-80456994D01*
X145776414Y-80448277D01*
X145626070Y-80283051D01*
X145617925Y-80276618D01*
X145617917Y-80276611D01*
X145517069Y-80196965D01*
X145453024Y-80121845D01*
X145422602Y-80027934D01*
X145430433Y-79929529D01*
X145441084Y-79908672D01*
X145438361Y-79907640D01*
X145455135Y-79863365D01*
X145450691Y-79853501D01*
X144714019Y-79116829D01*
X144696400Y-79105056D01*
X144678781Y-79116829D01*
X143947944Y-79847666D01*
X143935486Y-79866311D01*
X143936391Y-79870864D01*
X143968447Y-79948248D01*
X143968449Y-80046964D01*
X143930673Y-80138166D01*
X143872215Y-80199931D01*
X143845567Y-80219939D01*
X143791365Y-80260635D01*
X143784186Y-80268147D01*
X143784183Y-80268150D01*
X143766702Y-80286443D01*
X143637029Y-80422138D01*
X143631175Y-80430719D01*
X143624641Y-80438788D01*
X143622545Y-80437091D01*
X143565040Y-80493514D01*
X143473484Y-80530423D01*
X143374773Y-80529486D01*
X143283934Y-80490845D01*
X143237648Y-80447154D01*
X143236414Y-80448277D01*
X143093056Y-80290728D01*
X143093053Y-80290725D01*
X143086070Y-80283051D01*
X143077931Y-80276623D01*
X143077918Y-80276611D01*
X142992966Y-80209520D01*
X142928921Y-80134400D01*
X142898499Y-80040489D01*
X142906330Y-79942085D01*
X142951224Y-79854168D01*
X143002854Y-79805001D01*
X143027810Y-79787200D01*
X143036260Y-79781173D01*
X143043614Y-79773845D01*
X143187145Y-79630815D01*
X143187149Y-79630811D01*
X143194496Y-79623489D01*
X143200550Y-79615064D01*
X143200555Y-79615058D01*
X143233621Y-79569041D01*
X143305758Y-79501653D01*
X143398191Y-79467001D01*
X143496850Y-79470359D01*
X143545002Y-79486916D01*
X143572532Y-79499608D01*
X143579354Y-79497091D01*
X143582875Y-79494315D01*
X144319571Y-78757619D01*
X144331344Y-78740000D01*
X145061456Y-78740000D01*
X145073229Y-78757619D01*
X145802067Y-79486457D01*
X145819686Y-79498230D01*
X145827767Y-79492831D01*
X145858363Y-79450251D01*
X145869022Y-79432511D01*
X145958763Y-79250935D01*
X145966382Y-79231692D01*
X146025263Y-79037892D01*
X146029634Y-79017675D01*
X146056548Y-78813243D01*
X146057592Y-78799824D01*
X146058889Y-78746739D01*
X146058502Y-78733284D01*
X146041608Y-78527799D01*
X146038226Y-78507365D01*
X145988885Y-78310936D01*
X145982213Y-78291338D01*
X145901454Y-78105603D01*
X145891669Y-78087355D01*
X145833158Y-77996909D01*
X145818398Y-77981704D01*
X145811312Y-77984516D01*
X145810172Y-77985438D01*
X145073229Y-78722381D01*
X145061456Y-78740000D01*
X144331344Y-78740000D01*
X144319571Y-78722381D01*
X143591056Y-77993866D01*
X143572411Y-77981408D01*
X143564612Y-77982959D01*
X143493221Y-78012531D01*
X143394505Y-78012531D01*
X143303303Y-77974754D01*
X143243414Y-77918760D01*
X143242050Y-77916989D01*
X143236414Y-77908277D01*
X143086070Y-77743051D01*
X143077928Y-77736621D01*
X143077925Y-77736618D01*
X142968587Y-77650268D01*
X142926211Y-77616801D01*
X143937377Y-77616801D01*
X143941964Y-77626354D01*
X144678781Y-78363171D01*
X144696400Y-78374944D01*
X144714019Y-78363171D01*
X145444982Y-77632208D01*
X145456755Y-77614589D01*
X145451489Y-77606708D01*
X145441391Y-77599999D01*
X145264077Y-77502116D01*
X145245193Y-77493629D01*
X145054272Y-77426020D01*
X145034259Y-77420733D01*
X144834863Y-77385216D01*
X144814253Y-77383267D01*
X144611731Y-77380792D01*
X144591080Y-77382236D01*
X144390872Y-77412872D01*
X144370741Y-77417668D01*
X144178207Y-77480597D01*
X144159151Y-77488608D01*
X143979485Y-77582136D01*
X143961967Y-77593169D01*
X143951514Y-77601016D01*
X143937377Y-77616801D01*
X142926211Y-77616801D01*
X142910759Y-77604598D01*
X142827171Y-77558455D01*
X142724278Y-77501655D01*
X142724274Y-77501653D01*
X142715189Y-77496638D01*
X142705406Y-77493174D01*
X142705400Y-77493171D01*
X142514400Y-77425535D01*
X142514399Y-77425535D01*
X142504612Y-77422069D01*
X142494392Y-77420249D01*
X142494390Y-77420248D01*
X142294907Y-77384715D01*
X142284684Y-77382894D01*
X142274304Y-77382767D01*
X142274302Y-77382767D01*
X142159958Y-77381370D01*
X142061311Y-77380165D01*
X141840491Y-77413955D01*
X141830618Y-77417182D01*
X141830614Y-77417183D01*
X141728495Y-77450561D01*
X141628156Y-77483357D01*
X141430007Y-77586507D01*
X141251365Y-77720635D01*
X141244186Y-77728147D01*
X141244183Y-77728150D01*
X141226702Y-77746443D01*
X141097029Y-77882138D01*
X140971143Y-78066680D01*
X140877088Y-78269305D01*
X140874313Y-78279312D01*
X140874312Y-78279314D01*
X140851056Y-78363171D01*
X140817389Y-78484570D01*
X140793651Y-78706695D01*
X140794249Y-78717067D01*
X140794249Y-78717068D01*
X140803372Y-78875285D01*
X140806510Y-78929715D01*
X140855622Y-79147639D01*
X140874380Y-79193835D01*
X140935760Y-79344998D01*
X140935763Y-79345004D01*
X140939666Y-79354616D01*
X140945090Y-79363467D01*
X141050960Y-79536233D01*
X141050964Y-79536239D01*
X141056387Y-79545088D01*
X141202650Y-79713938D01*
X141325090Y-79815590D01*
X141387280Y-79892249D01*
X141415399Y-79986875D01*
X141405167Y-80085059D01*
X141358140Y-80171853D01*
X141315387Y-80212566D01*
X141251365Y-80260635D01*
X141244186Y-80268147D01*
X141244183Y-80268150D01*
X141226702Y-80286443D01*
X141097029Y-80422138D01*
X140971143Y-80606680D01*
X140877088Y-80809305D01*
X140817389Y-81024570D01*
X140793651Y-81246695D01*
X140794249Y-81257067D01*
X140794249Y-81257068D01*
X140803372Y-81415285D01*
X140806510Y-81469715D01*
X140855622Y-81687639D01*
X140874380Y-81733835D01*
X140935760Y-81884998D01*
X140935763Y-81885004D01*
X140939666Y-81894616D01*
X140945090Y-81903467D01*
X141050960Y-82076233D01*
X141050964Y-82076239D01*
X141056387Y-82085088D01*
X141202650Y-82253938D01*
X141325090Y-82355590D01*
X141387280Y-82432249D01*
X141415399Y-82526875D01*
X141405167Y-82625059D01*
X141358140Y-82711853D01*
X141315387Y-82752566D01*
X141251365Y-82800635D01*
X141244186Y-82808147D01*
X141244183Y-82808150D01*
X141205411Y-82848723D01*
X141097029Y-82962138D01*
X140971143Y-83146680D01*
X140877088Y-83349305D01*
X140817389Y-83564570D01*
X140793651Y-83786695D01*
X127420286Y-83786695D01*
X126763620Y-83130029D01*
X126746001Y-83118256D01*
X126728382Y-83130029D01*
X125997545Y-83860866D01*
X125985772Y-83878485D01*
X124995148Y-83878485D01*
X125000825Y-83867368D01*
X125052455Y-83818201D01*
X125077411Y-83800400D01*
X125085861Y-83794373D01*
X125103928Y-83776369D01*
X125236746Y-83644015D01*
X125236750Y-83644011D01*
X125244097Y-83636689D01*
X125250151Y-83628264D01*
X125250156Y-83628258D01*
X125283222Y-83582241D01*
X125355359Y-83514853D01*
X125447792Y-83480201D01*
X125546451Y-83483559D01*
X125594603Y-83500116D01*
X125622133Y-83512808D01*
X125628955Y-83510291D01*
X125632476Y-83507515D01*
X126369172Y-82770819D01*
X126380945Y-82753200D01*
X127111057Y-82753200D01*
X127122830Y-82770819D01*
X127851668Y-83499657D01*
X127869287Y-83511430D01*
X127877368Y-83506031D01*
X127907964Y-83463451D01*
X127918623Y-83445711D01*
X128008364Y-83264135D01*
X128015983Y-83244892D01*
X128074864Y-83051092D01*
X128079235Y-83030875D01*
X128106149Y-82826443D01*
X128107193Y-82813024D01*
X128108490Y-82759939D01*
X128108103Y-82746484D01*
X128091209Y-82540999D01*
X128087827Y-82520565D01*
X128038486Y-82324136D01*
X128031814Y-82304538D01*
X127951055Y-82118803D01*
X127941270Y-82100555D01*
X127882759Y-82010109D01*
X127867999Y-81994904D01*
X127860913Y-81997716D01*
X127859773Y-81998638D01*
X127122830Y-82735581D01*
X127111057Y-82753200D01*
X126380945Y-82753200D01*
X126369172Y-82735581D01*
X125640657Y-82007066D01*
X125622012Y-81994608D01*
X125614213Y-81996159D01*
X125542822Y-82025731D01*
X125444106Y-82025731D01*
X125352904Y-81987954D01*
X125293015Y-81931960D01*
X125291651Y-81930189D01*
X125286015Y-81921477D01*
X125135671Y-81756251D01*
X125127532Y-81749823D01*
X125127519Y-81749811D01*
X125042567Y-81682720D01*
X124978522Y-81607600D01*
X124948100Y-81513689D01*
X124955931Y-81415285D01*
X124995148Y-81338485D01*
X125985772Y-81338485D01*
X125988819Y-81343045D01*
X126026596Y-81434246D01*
X126026596Y-81532962D01*
X125988819Y-81624163D01*
X125987511Y-81625850D01*
X125986443Y-81628889D01*
X125991565Y-81639554D01*
X126728382Y-82376371D01*
X126746001Y-82388144D01*
X126763620Y-82376371D01*
X127494583Y-81645408D01*
X127506356Y-81627790D01*
X127503063Y-81622862D01*
X127465286Y-81531660D01*
X127465286Y-81432944D01*
X127499678Y-81349915D01*
X127504736Y-81336565D01*
X127500292Y-81326701D01*
X126763620Y-80590029D01*
X126746001Y-80578256D01*
X126728382Y-80590029D01*
X125997545Y-81320866D01*
X125985772Y-81338485D01*
X124995148Y-81338485D01*
X125000825Y-81327368D01*
X125052455Y-81278201D01*
X125077411Y-81260400D01*
X125085861Y-81254373D01*
X125103928Y-81236369D01*
X125236746Y-81104015D01*
X125236750Y-81104011D01*
X125244097Y-81096689D01*
X125250151Y-81088264D01*
X125250156Y-81088258D01*
X125283222Y-81042241D01*
X125355359Y-80974853D01*
X125447792Y-80940201D01*
X125546451Y-80943559D01*
X125594603Y-80960116D01*
X125622133Y-80972808D01*
X125628955Y-80970291D01*
X125632476Y-80967515D01*
X126369172Y-80230819D01*
X126380945Y-80213200D01*
X127111057Y-80213200D01*
X127122830Y-80230819D01*
X127851668Y-80959657D01*
X127869287Y-80971430D01*
X127877368Y-80966031D01*
X127907964Y-80923451D01*
X127918623Y-80905711D01*
X128008364Y-80724135D01*
X128015983Y-80704892D01*
X128074864Y-80511092D01*
X128079235Y-80490875D01*
X128106149Y-80286443D01*
X128107193Y-80273024D01*
X128108490Y-80219939D01*
X128108103Y-80206484D01*
X128091209Y-80000999D01*
X128087827Y-79980565D01*
X128038486Y-79784136D01*
X128031814Y-79764538D01*
X127951055Y-79578803D01*
X127941270Y-79560555D01*
X127882759Y-79470109D01*
X127867999Y-79454904D01*
X127860913Y-79457716D01*
X127859773Y-79458638D01*
X127122830Y-80195581D01*
X127111057Y-80213200D01*
X126380945Y-80213200D01*
X126369172Y-80195581D01*
X125640657Y-79467066D01*
X125622012Y-79454608D01*
X125614213Y-79456159D01*
X125542822Y-79485731D01*
X125444106Y-79485731D01*
X125352904Y-79447954D01*
X125293015Y-79391960D01*
X125291651Y-79390189D01*
X125286015Y-79381477D01*
X125158929Y-79241811D01*
X125142657Y-79223928D01*
X125142654Y-79223925D01*
X125135671Y-79216251D01*
X125127532Y-79209823D01*
X125127519Y-79209811D01*
X125042567Y-79142720D01*
X124978522Y-79067600D01*
X124948100Y-78973689D01*
X124955931Y-78875285D01*
X124995148Y-78798485D01*
X125985772Y-78798485D01*
X125988819Y-78803045D01*
X126026596Y-78894246D01*
X126026596Y-78992962D01*
X125988819Y-79084163D01*
X125987511Y-79085850D01*
X125986443Y-79088889D01*
X125991565Y-79099554D01*
X126728382Y-79836371D01*
X126746001Y-79848144D01*
X126763620Y-79836371D01*
X127494583Y-79105408D01*
X127506356Y-79087790D01*
X127503063Y-79082862D01*
X127465286Y-78991660D01*
X127465286Y-78892944D01*
X127499678Y-78809915D01*
X127504736Y-78796565D01*
X127500292Y-78786701D01*
X126763620Y-78050029D01*
X126746001Y-78038256D01*
X126728382Y-78050029D01*
X125997545Y-78780866D01*
X125985772Y-78798485D01*
X124995148Y-78798485D01*
X125000825Y-78787368D01*
X125052455Y-78738201D01*
X125085861Y-78714373D01*
X125103928Y-78696369D01*
X125236746Y-78564015D01*
X125236750Y-78564011D01*
X125244097Y-78556689D01*
X125250151Y-78548264D01*
X125250156Y-78548258D01*
X125283222Y-78502241D01*
X125355359Y-78434853D01*
X125447792Y-78400201D01*
X125546451Y-78403559D01*
X125594603Y-78420116D01*
X125622133Y-78432808D01*
X125628955Y-78430291D01*
X125632476Y-78427515D01*
X126369172Y-77690819D01*
X126380945Y-77673200D01*
X127111057Y-77673200D01*
X127122830Y-77690819D01*
X127851668Y-78419657D01*
X127869287Y-78431430D01*
X127877368Y-78426031D01*
X127907964Y-78383451D01*
X127918623Y-78365711D01*
X128008364Y-78184135D01*
X128015983Y-78164892D01*
X128074864Y-77971092D01*
X128079235Y-77950875D01*
X128106149Y-77746443D01*
X128107193Y-77733024D01*
X128108490Y-77679939D01*
X128108103Y-77666484D01*
X128091209Y-77460999D01*
X128087827Y-77440565D01*
X128038486Y-77244136D01*
X128031814Y-77224538D01*
X127951055Y-77038803D01*
X127941270Y-77020555D01*
X127882759Y-76930109D01*
X127867999Y-76914904D01*
X127860913Y-76917716D01*
X127859773Y-76918638D01*
X127122830Y-77655581D01*
X127111057Y-77673200D01*
X126380945Y-77673200D01*
X126369172Y-77655581D01*
X125640657Y-76927066D01*
X125622012Y-76914608D01*
X125614213Y-76916159D01*
X125542822Y-76945731D01*
X125444106Y-76945731D01*
X125352904Y-76907954D01*
X125293015Y-76851960D01*
X125291651Y-76850189D01*
X125286015Y-76841477D01*
X125135671Y-76676251D01*
X125127532Y-76669823D01*
X125127519Y-76669811D01*
X125042567Y-76602720D01*
X124978522Y-76527600D01*
X124948100Y-76433689D01*
X124955931Y-76335285D01*
X124995148Y-76258485D01*
X125985772Y-76258485D01*
X125988819Y-76263045D01*
X126026596Y-76354246D01*
X126026596Y-76452962D01*
X125988819Y-76544163D01*
X125987511Y-76545850D01*
X125986443Y-76548889D01*
X125991565Y-76559554D01*
X126728382Y-77296371D01*
X126746001Y-77308144D01*
X126763620Y-77296371D01*
X127494583Y-76565408D01*
X127506356Y-76547790D01*
X127503063Y-76542862D01*
X127465286Y-76451660D01*
X127465286Y-76352944D01*
X127499678Y-76269915D01*
X127504736Y-76256565D01*
X127500292Y-76246701D01*
X126763620Y-75510029D01*
X126746001Y-75498256D01*
X126728382Y-75510029D01*
X125997545Y-76240866D01*
X125985772Y-76258485D01*
X124995148Y-76258485D01*
X125000825Y-76247368D01*
X125052455Y-76198201D01*
X125077411Y-76180400D01*
X125085861Y-76174373D01*
X125093215Y-76167045D01*
X125236746Y-76024015D01*
X125236750Y-76024011D01*
X125244097Y-76016689D01*
X125250151Y-76008264D01*
X125250156Y-76008258D01*
X125283222Y-75962241D01*
X125355359Y-75894853D01*
X125447792Y-75860201D01*
X125546451Y-75863559D01*
X125594603Y-75880116D01*
X125622133Y-75892808D01*
X125628955Y-75890291D01*
X125632476Y-75887515D01*
X126369172Y-75150819D01*
X126380945Y-75133200D01*
X127111057Y-75133200D01*
X127122830Y-75150819D01*
X127851668Y-75879657D01*
X127869287Y-75891430D01*
X127877368Y-75886031D01*
X127907964Y-75843451D01*
X127918623Y-75825711D01*
X128008364Y-75644135D01*
X128015983Y-75624892D01*
X128074864Y-75431092D01*
X128079235Y-75410875D01*
X128106149Y-75206443D01*
X128107193Y-75193024D01*
X128108490Y-75139939D01*
X128108103Y-75126484D01*
X128091209Y-74920999D01*
X128087827Y-74900565D01*
X128038486Y-74704136D01*
X128031814Y-74684538D01*
X127951055Y-74498803D01*
X127941270Y-74480555D01*
X127882759Y-74390109D01*
X127867999Y-74374904D01*
X127860913Y-74377716D01*
X127859773Y-74378638D01*
X127122830Y-75115581D01*
X127111057Y-75133200D01*
X126380945Y-75133200D01*
X126369172Y-75115581D01*
X125640657Y-74387066D01*
X125622012Y-74374608D01*
X125614213Y-74376159D01*
X125542822Y-74405731D01*
X125444106Y-74405731D01*
X125352904Y-74367954D01*
X125293015Y-74311960D01*
X125291651Y-74310189D01*
X125286015Y-74301477D01*
X125135671Y-74136251D01*
X125127532Y-74129823D01*
X125127519Y-74129811D01*
X125042567Y-74062720D01*
X124978522Y-73987600D01*
X124948100Y-73893689D01*
X124955931Y-73795285D01*
X124995148Y-73718485D01*
X125985772Y-73718485D01*
X125988819Y-73723045D01*
X126026596Y-73814246D01*
X126026596Y-73912962D01*
X125988819Y-74004163D01*
X125987511Y-74005850D01*
X125986443Y-74008889D01*
X125991565Y-74019554D01*
X126728382Y-74756371D01*
X126746001Y-74768144D01*
X126763620Y-74756371D01*
X127494583Y-74025408D01*
X127506356Y-74007790D01*
X127503063Y-74002862D01*
X127465286Y-73911660D01*
X127465286Y-73812944D01*
X127499678Y-73729915D01*
X127504736Y-73716565D01*
X127500292Y-73706701D01*
X126763620Y-72970029D01*
X126746001Y-72958256D01*
X126728382Y-72970029D01*
X125997545Y-73700866D01*
X125985772Y-73718485D01*
X124995148Y-73718485D01*
X125000825Y-73707368D01*
X125052455Y-73658201D01*
X125077411Y-73640400D01*
X125085861Y-73634373D01*
X125093215Y-73627045D01*
X125236746Y-73484015D01*
X125236750Y-73484011D01*
X125244097Y-73476689D01*
X125250151Y-73468264D01*
X125250156Y-73468258D01*
X125283222Y-73422241D01*
X125355359Y-73354853D01*
X125447792Y-73320201D01*
X125546451Y-73323559D01*
X125594603Y-73340116D01*
X125622133Y-73352808D01*
X125628955Y-73350291D01*
X125632476Y-73347515D01*
X126369172Y-72610819D01*
X126380945Y-72593200D01*
X127111057Y-72593200D01*
X127122830Y-72610819D01*
X127851668Y-73339657D01*
X127869287Y-73351430D01*
X127877368Y-73346031D01*
X127907964Y-73303451D01*
X127918623Y-73285711D01*
X128008364Y-73104135D01*
X128015983Y-73084892D01*
X128074864Y-72891092D01*
X128079235Y-72870875D01*
X128106149Y-72666443D01*
X128107193Y-72653024D01*
X128108490Y-72599939D01*
X128108103Y-72586484D01*
X128091209Y-72380999D01*
X128087827Y-72360565D01*
X128038486Y-72164136D01*
X128031814Y-72144538D01*
X127951055Y-71958803D01*
X127941270Y-71940555D01*
X127882759Y-71850109D01*
X127867999Y-71834904D01*
X127860913Y-71837716D01*
X127859773Y-71838638D01*
X127122830Y-72575581D01*
X127111057Y-72593200D01*
X126380945Y-72593200D01*
X126369172Y-72575581D01*
X125640657Y-71847066D01*
X125622012Y-71834608D01*
X125614213Y-71836159D01*
X125542822Y-71865731D01*
X125444106Y-71865731D01*
X125352904Y-71827954D01*
X125293015Y-71771960D01*
X125291651Y-71770189D01*
X125286015Y-71761477D01*
X125192112Y-71658279D01*
X125141196Y-71573708D01*
X125126520Y-71476089D01*
X125150318Y-71380285D01*
X125208967Y-71300880D01*
X125246108Y-71272867D01*
X125267853Y-71259411D01*
X125267854Y-71259410D01*
X125280349Y-71251678D01*
X125405306Y-71126503D01*
X125423954Y-71096251D01*
X125491151Y-71023937D01*
X125580906Y-70982842D01*
X125679555Y-70979224D01*
X125772080Y-71013633D01*
X125800934Y-71034347D01*
X125929324Y-71140938D01*
X125991515Y-71217600D01*
X126019634Y-71312226D01*
X126009402Y-71410410D01*
X126001673Y-71424058D01*
X126002130Y-71424218D01*
X125986443Y-71468889D01*
X125991565Y-71479554D01*
X126728382Y-72216371D01*
X126746001Y-72228144D01*
X126763620Y-72216371D01*
X127494583Y-71485408D01*
X127507041Y-71466763D01*
X127505986Y-71461455D01*
X127474508Y-71385459D01*
X127474509Y-71286743D01*
X127512286Y-71195542D01*
X127575729Y-71130132D01*
X127617409Y-71100402D01*
X127617411Y-71100400D01*
X127625861Y-71094373D01*
X127633215Y-71087045D01*
X127776746Y-70944015D01*
X127776750Y-70944011D01*
X127784097Y-70936689D01*
X127914454Y-70755277D01*
X128013431Y-70555011D01*
X128078371Y-70341269D01*
X128107530Y-70119790D01*
X128109157Y-70053200D01*
X128090853Y-69830561D01*
X128036432Y-69613902D01*
X127947355Y-69409040D01*
X127884630Y-69312081D01*
X127831655Y-69230195D01*
X127831655Y-69230194D01*
X127826015Y-69221477D01*
X127728307Y-69114097D01*
X127682657Y-69063928D01*
X127682654Y-69063925D01*
X127675671Y-69056251D01*
X127667529Y-69049821D01*
X127667526Y-69049818D01*
X127564520Y-68968469D01*
X127500360Y-68917798D01*
X127386098Y-68854722D01*
X127313879Y-68814855D01*
X127313875Y-68814853D01*
X127304790Y-68809838D01*
X127295007Y-68806374D01*
X127295001Y-68806371D01*
X127104001Y-68738735D01*
X127104000Y-68738735D01*
X127094213Y-68735269D01*
X127083993Y-68733449D01*
X127083991Y-68733448D01*
X126884508Y-68697915D01*
X126874285Y-68696094D01*
X126863905Y-68695967D01*
X126863903Y-68695967D01*
X126749559Y-68694570D01*
X126650912Y-68693365D01*
X126430092Y-68727155D01*
X126420219Y-68730382D01*
X126420215Y-68730383D01*
X126217757Y-68796557D01*
X126019608Y-68899707D01*
X125840966Y-69033835D01*
X125822637Y-69053015D01*
X125741827Y-69109704D01*
X125645469Y-69131154D01*
X125548239Y-69114097D01*
X125464936Y-69061129D01*
X125424592Y-69011353D01*
X125412214Y-68991350D01*
X125412210Y-68991344D01*
X125404479Y-68978852D01*
X125279304Y-68853895D01*
X125128739Y-68761085D01*
X124987052Y-68714090D01*
X124973974Y-68709752D01*
X124960862Y-68705403D01*
X124856401Y-68694700D01*
X123555601Y-68694700D01*
X123549096Y-68695375D01*
X123549095Y-68695375D01*
X123463605Y-68704245D01*
X123463603Y-68704246D01*
X123449835Y-68705674D01*
X123436703Y-68710055D01*
X123436704Y-68710055D01*
X123295995Y-68756999D01*
X123295993Y-68757000D01*
X123282055Y-68761650D01*
X123131653Y-68854722D01*
X123006696Y-68979897D01*
X122998983Y-68992410D01*
X122923974Y-69114097D01*
X122913886Y-69130462D01*
X122858204Y-69298339D01*
X122847501Y-69402800D01*
X122847501Y-70703600D01*
X122848176Y-70710105D01*
X122848176Y-70710106D01*
X122853738Y-70763707D01*
X122858475Y-70809366D01*
X122862856Y-70822497D01*
X122903398Y-70944015D01*
X122914451Y-70977146D01*
X122922184Y-70989642D01*
X122999131Y-71113986D01*
X123007523Y-71127548D01*
X123132698Y-71252505D01*
X123145210Y-71260218D01*
X123145217Y-71260223D01*
X123165635Y-71272809D01*
X123237948Y-71340007D01*
X123279040Y-71429764D01*
X123282656Y-71528413D01*
X123248245Y-71620937D01*
X123215792Y-71662964D01*
X123146630Y-71735338D01*
X123020744Y-71919880D01*
X122926689Y-72122505D01*
X122923914Y-72132512D01*
X122923913Y-72132514D01*
X122900657Y-72216371D01*
X122866990Y-72337770D01*
X122843252Y-72559895D01*
X122843850Y-72570267D01*
X122843850Y-72570268D01*
X122848805Y-72656195D01*
X122856111Y-72782915D01*
X122905223Y-73000839D01*
X122909130Y-73010460D01*
X122985361Y-73198198D01*
X122985364Y-73198204D01*
X122989267Y-73207816D01*
X122994691Y-73216667D01*
X123100561Y-73389433D01*
X123100565Y-73389439D01*
X123105988Y-73398288D01*
X123252251Y-73567138D01*
X123374691Y-73668790D01*
X123436881Y-73745449D01*
X123465000Y-73840075D01*
X123454768Y-73938259D01*
X123407741Y-74025053D01*
X123364988Y-74065766D01*
X123300966Y-74113835D01*
X123293787Y-74121347D01*
X123293784Y-74121350D01*
X123272208Y-74143928D01*
X123146630Y-74275338D01*
X123020744Y-74459880D01*
X122926689Y-74662505D01*
X122923914Y-74672512D01*
X122923913Y-74672514D01*
X122900657Y-74756371D01*
X122866990Y-74877770D01*
X122843252Y-75099895D01*
X122856111Y-75322915D01*
X122905223Y-75540839D01*
X122909130Y-75550460D01*
X122985361Y-75738198D01*
X122985364Y-75738204D01*
X122989267Y-75747816D01*
X122994691Y-75756667D01*
X123100561Y-75929433D01*
X123100565Y-75929439D01*
X123105988Y-75938288D01*
X123252251Y-76107138D01*
X123374691Y-76208790D01*
X123436881Y-76285449D01*
X123465000Y-76380075D01*
X123454768Y-76478259D01*
X123407741Y-76565053D01*
X123364988Y-76605766D01*
X123300966Y-76653835D01*
X123293787Y-76661347D01*
X123293784Y-76661350D01*
X123272208Y-76683928D01*
X123146630Y-76815338D01*
X123020744Y-76999880D01*
X122926689Y-77202505D01*
X122923914Y-77212512D01*
X122923913Y-77212514D01*
X122900657Y-77296371D01*
X122866990Y-77417770D01*
X122843252Y-77639895D01*
X122843850Y-77650267D01*
X122843850Y-77650268D01*
X122847548Y-77714395D01*
X122856111Y-77862915D01*
X122905223Y-78080839D01*
X122915279Y-78105603D01*
X122985361Y-78278198D01*
X122985364Y-78278204D01*
X122989267Y-78287816D01*
X122994691Y-78296667D01*
X123100561Y-78469433D01*
X123100565Y-78469439D01*
X123105988Y-78478288D01*
X123112785Y-78486135D01*
X123112786Y-78486136D01*
X123126737Y-78502241D01*
X123252251Y-78647138D01*
X123374691Y-78748790D01*
X123436881Y-78825449D01*
X123465000Y-78920075D01*
X123454768Y-79018259D01*
X123407741Y-79105053D01*
X123364988Y-79145766D01*
X123300966Y-79193835D01*
X123293787Y-79201347D01*
X123293784Y-79201350D01*
X123272208Y-79223928D01*
X123146630Y-79355338D01*
X123020744Y-79539880D01*
X122926689Y-79742505D01*
X122923914Y-79752512D01*
X122923913Y-79752514D01*
X122914294Y-79787200D01*
X122866990Y-79957770D01*
X122843252Y-80179895D01*
X122843850Y-80190267D01*
X122843850Y-80190268D01*
X122848829Y-80276611D01*
X122856111Y-80402915D01*
X122905223Y-80620839D01*
X122938129Y-80701877D01*
X122985361Y-80818198D01*
X122985364Y-80818204D01*
X122989267Y-80827816D01*
X122994691Y-80836667D01*
X123100561Y-81009433D01*
X123100565Y-81009439D01*
X123105988Y-81018288D01*
X123112785Y-81026135D01*
X123112786Y-81026136D01*
X123126737Y-81042241D01*
X123252251Y-81187138D01*
X123374691Y-81288790D01*
X123436881Y-81365449D01*
X123465000Y-81460075D01*
X123454768Y-81558259D01*
X123407741Y-81645053D01*
X123364988Y-81685766D01*
X123300966Y-81733835D01*
X123293787Y-81741347D01*
X123293784Y-81741350D01*
X123272208Y-81763928D01*
X123146630Y-81895338D01*
X123020744Y-82079880D01*
X122926689Y-82282505D01*
X122923914Y-82292512D01*
X122923913Y-82292514D01*
X122914294Y-82327200D01*
X122866990Y-82497770D01*
X122843252Y-82719895D01*
X122843850Y-82730267D01*
X122843850Y-82730268D01*
X122852689Y-82883558D01*
X122856111Y-82942915D01*
X122905223Y-83160839D01*
X122938129Y-83241877D01*
X122985361Y-83358198D01*
X122985364Y-83358204D01*
X122989267Y-83367816D01*
X122994691Y-83376667D01*
X123100561Y-83549433D01*
X123100565Y-83549439D01*
X123105988Y-83558288D01*
X123112785Y-83566135D01*
X123112786Y-83566136D01*
X123126737Y-83582241D01*
X123252251Y-83727138D01*
X123374691Y-83828790D01*
X123436881Y-83905449D01*
X123465000Y-84000075D01*
X123454768Y-84098259D01*
X123407741Y-84185053D01*
X123364988Y-84225766D01*
X123300966Y-84273835D01*
X123293787Y-84281347D01*
X123293784Y-84281350D01*
X123272208Y-84303928D01*
X123146630Y-84435338D01*
X123020744Y-84619880D01*
X122926689Y-84822505D01*
X122923914Y-84832512D01*
X122923913Y-84832514D01*
X122914294Y-84867200D01*
X122866990Y-85037770D01*
X122843252Y-85259895D01*
X122856111Y-85482915D01*
X122905223Y-85700839D01*
X122909130Y-85710460D01*
X122985361Y-85898198D01*
X122985364Y-85898204D01*
X122989267Y-85907816D01*
X122994691Y-85916667D01*
X123100561Y-86089433D01*
X123100565Y-86089439D01*
X123105988Y-86098288D01*
X123252251Y-86267138D01*
X123374691Y-86368790D01*
X123436881Y-86445449D01*
X123465000Y-86540075D01*
X123454768Y-86638259D01*
X123407741Y-86725053D01*
X123364988Y-86765766D01*
X123300966Y-86813835D01*
X123293787Y-86821347D01*
X123293784Y-86821350D01*
X123272208Y-86843928D01*
X123146630Y-86975338D01*
X123020744Y-87159880D01*
X122926689Y-87362505D01*
X122923914Y-87372512D01*
X122923913Y-87372514D01*
X122900657Y-87456371D01*
X122866990Y-87577770D01*
X122843252Y-87799895D01*
X122856111Y-88022915D01*
X122905223Y-88240839D01*
X122909130Y-88250460D01*
X122985361Y-88438198D01*
X122985364Y-88438204D01*
X122989267Y-88447816D01*
X122994691Y-88456667D01*
X123100561Y-88629433D01*
X123100565Y-88629439D01*
X123105988Y-88638288D01*
X123252251Y-88807138D01*
X123374691Y-88908790D01*
X123436881Y-88985449D01*
X123465000Y-89080075D01*
X123454768Y-89178259D01*
X123407741Y-89265053D01*
X123364988Y-89305766D01*
X123300966Y-89353835D01*
X123293787Y-89361347D01*
X123293784Y-89361350D01*
X123272208Y-89383928D01*
X123146630Y-89515338D01*
X123020744Y-89699880D01*
X122926689Y-89902505D01*
X122923914Y-89912512D01*
X122923913Y-89912514D01*
X122910726Y-89960064D01*
X122866990Y-90117770D01*
X122843252Y-90339895D01*
X122856111Y-90562915D01*
X122905223Y-90780839D01*
X122909130Y-90790460D01*
X122985361Y-90978198D01*
X122985364Y-90978204D01*
X122989267Y-90987816D01*
X122994691Y-90996667D01*
X123100561Y-91169433D01*
X123100565Y-91169439D01*
X123105988Y-91178288D01*
X123252251Y-91347138D01*
X123374691Y-91448790D01*
X123436881Y-91525449D01*
X123465000Y-91620075D01*
X123454768Y-91718259D01*
X123407741Y-91805053D01*
X123364988Y-91845766D01*
X123300966Y-91893835D01*
X123293787Y-91901347D01*
X123293784Y-91901350D01*
X123272208Y-91923928D01*
X123146630Y-92055338D01*
X123020744Y-92239880D01*
X122926689Y-92442505D01*
X122923914Y-92452512D01*
X122923913Y-92452514D01*
X122900657Y-92536371D01*
X122866990Y-92657770D01*
X122843252Y-92879895D01*
X120853200Y-92879895D01*
X120853200Y-65175400D01*
X120872458Y-65078581D01*
X120927302Y-64996502D01*
X121009381Y-64941658D01*
X121106200Y-64922400D01*
X130148048Y-64922400D01*
X130244867Y-64941658D01*
G37*
%TD.AperFunction*%
%TD*%
M02*
